<?xml version="1.0" encoding="UTF-8"?>
<svg id="Layer_1" xmlns="http://www.w3.org/2000/svg" version="1.1" viewBox="0 0 903.22 1101.55">
  <!-- Generator: Adobe Illustrator 30.3.0, SVG Export Plug-In . SVG Version: 2.1.3 Build 182)  -->
  <defs>
    <style>
      .st0 {
        fill: #070707;
      }

      .st1 {
        fill: #e6c76b;
      }

      .st2 {
        fill: #c6a84a;
      }

      .st3 {
        fill: #fff;
      }

      .st4 {
        fill: #1f7a63;
      }
    </style>
  </defs>
  <path d="M228.73,197.61c21.05,5.54,48.45,15.02,77.92,31.8,34.14,19.44,58.76,41.69,75.04,58.89,5.88-.23,10.16.93,13.03,2.08,5.15,2.06,6.24,4.26,10.42,4.69,4.13.42,5.39-1.49,11.46-3.13,1.81-.49,8.66-2.26,16.15-1.04,9,1.46,10.4,5.86,16.15,4.69,3.81-.77,4.24-2.91,10.42-5.73,4.14-1.89,7.87-2.72,10.42-3.13,18.36-18.48,35.39-32.14,48.46-41.69,15.44-11.28,29.51-21.56,50.55-30.75,20.71-9.05,39.19-13.11,52.11-15.11,7.58,13.61,16.76,34.06,20.95,60.23,7.27,45.4-4.63,81.99-11.57,99.24,2.13,4.18,4.35,9.24,6.25,15.11,1.8,5.55,2.93,10.67,3.65,15.11,3-3.25,8.47-10.14,10.42-20.32.85-4.45.82-8.39.52-11.46,5.91,8.04,14.57,21.95,19.28,41.17,4.89,19.94,3.15,35.84,2.61,40.13-2.61,20.6-10.73,35.83-16.15,44.3,2.86-.73,7.7-2.36,12.51-6.25,3.62-2.93,5.92-6.09,7.3-8.34-1.24,6.93-3.83,16.61-9.6,26.97-3.66,6.58-7.69,11.8-11.25,15.76,15.5,5.73,40.46,17.2,64.41,39.94,12.08,11.47,40.35,38.31,49.71,81.48,13.2,60.88-20.74,110.26-27.62,119.86,11.39-8.79,25.45-22.34,34.92-42.21,11.61-24.37,10.83-47.5,11.99-47.42,1.5.1,6.63,38.88-2.08,74.52-25.26,103.34-160.17,152.8-197.54,166.51-50.53,18.53-88.53,22.2-162.63,29.36-100.65,9.73-156.71.03-194.26-10.16-68.36-18.55-89.88-42.66-99.95-57.6-15.97-23.7-19.57-48.71-20.33-64.38-3.25,6.52-7.78,17.72-8.64,32.32-.69,11.61,1.2,21.18,3,27.54-7.93-9.57-25.73-33.82-28.24-68.89-2.06-28.86,7.25-50.59,11.86-60.99,12.17-27.49,30.86-45.09,45.02-58.42,8.93-8.41,16.99-14.73,22.78-18.99,14.35-25.74,28.69-51.48,43.04-77.22-5.43.24-12.29,1.05-19.93,3.28-11.22,3.27-19.69,8.29-25.25,12.24.36-7.85,1.57-17.51,4.68-28.18,5.82-19.94,15.66-34.33,22.78-43.04-4.64,1.86-10.38,4.65-16.46,8.86-6.34,4.4-11.12,9.02-14.55,12.85,2.59-10.96,8.03-27.67,20.22-44.81,7.95-11.18,16.47-19.32,23.44-25-4.97,1.2-10.94,2.22-17.72,2.53-12.03.55-22.12-1.32-29.33-3.31,11.35-5.09,26.43-13.02,42.37-25.3,12.78-9.84,27.74-23.72,26.2-25.82-.8-1.1-6.14.54-25.16,11.75,4.03-8.35,10.65-19.62,21.37-30.75,7.33-7.62,14.67-13.19,20.84-17.2-13.71-17.35-20.75-33.58-24.49-44.3-16.98-48.68-3.67-91.45.52-104.22,5.58-17.01,12.83-29.94,17.97-38.05Z"/>
  <path class="st4" d="M175.32,666.11c-11.42,6.95-28.39,19.32-43.25,39.61-22.62,30.88-27.4,62.41-28.66,77.13,3.61-7.1,9.05-16.01,17.2-25.01,5.57-6.16,11.15-10.97,16.06-14.67-3.18,12.38-7.74,37.65,1.13,66.78,6.54,21.48,17.47,35.47,20.84,39.61,14.48,17.73,30.47,26.06,45.86,33.87,13.4,6.8,35.11,15.87,64.1,19.8-10.13-3.87-26.71-11.67-42.73-27.1-14.53-13.99-22.7-28.55-27.1-38.04,7.29,7.82,18.28,18.27,33.35,28.14,29.56,19.37,57.05,24.9,74,28.14,66.11,12.63,128.95-5.26,153.33-13.23,0,0,0,0,0,0,.05-.03,19.55-9.64,58.77-28.98-10.23,2.38-23.67,5.01-39.61,6.77-10.17,1.12-22.29,2.42-38.15,1.95-10.66-.31-25-1.48-41.77-5.06,19.08-2.38,48.43-8.37,80.44-25.03,29.34-15.26,49.86-33.73,62.59-47.12-3.75,8.55-10.29,20.75-21.52,32.91-9.51,10.3-19.22,17.14-26.58,21.52,18.47-2.01,47.85-8.27,74.68-29.11,17.34-13.47,28.42-28.99,34.85-38.12,10.83-15.39,17.74-29.71,22.11-40.36-1.06,12.18-3.9,29.23-11.69,48.17-6.42,15.6-14.24,27.75-20.84,36.48,10.37-7.08,25.99-19.62,39.61-39.61,11.76-17.26,17.67-33.69,20.78-45.05,1.93-11.89,3.64-32.2-2.54-56.05-4.82-18.61-12.69-32.65-18.76-41.69-2.74,12.39-7.82,28.83-17.72,46.38-6.28,11.13-13.06,20.19-19.21,27.31,3.9-6.98,15.3-29.49,10.87-59.1-3.89-25.98-17.78-42.8-23.45-48.99.17,17.02.35,34.05.52,51.07-.81-7.19-2.7-17.11-7.3-28.14-4.59-11.02-10.3-19.34-14.83-24.97,1.13-6.51,3.43-15.84,8.57-26.1,2.05-4.09,8.04-15.29,19.8-26.58,11.45-10.99,16.98-11.13,30.23-22.41,9.44-8.03,15.95-15.89,19.88-21.12-4.86,1.43-10.14,3.23-15.71,5.49-5.79,2.35-11.01,4.84-15.63,7.3,8.26-6.71,21.92-19.62,31.79-40.13,12.92-26.85,12.03-51.52,10.95-62.53-3.58,6.34-8.9,14.34-16.68,22.4-6.65,6.9-13.26,11.95-18.76,15.57,3.45-8.47,8.53-24.21,7.3-44.24-1.54-25.06-12.12-42.9-17.42-50.7-3.29,6.35-8.69,15.66-16.97,25.69-8.2,9.93-13.75,13.93-22.93,23.45-6.47,6.71-15.34,16.78-24.66,30.61,1.94-6.04,4.32-16.09,3.29-28.52-.81-9.83-3.47-17.68-5.73-22.93-7.37,7.81-15.34,17.48-22.93,29.18-14.11,21.75-21.75,42.56-26.06,58.37-.74-6.79-2.01-14.53-4.17-22.93-1.85-7.21-4.03-13.66-6.25-19.28-4.78,10.5-9.71,23.43-13.55,38.56-4.37,17.22-6.16,32.7-6.77,45.34-.33,13.06.42,29.66,4.17,48.46,3.47,17.38,8.57,31.97,13.45,43.37-6.33-6.33-12.66-12.66-18.99-18.99,6.61,8.99,16.43,24.71,21.7,46.49.42,1.73,6.34,27.25,1.09,56.04-10.91,59.82-63.14,95.73-73.42,102.53,2.23-3.6,4.71-8.36,6.67-14.22,2.63-7.88,3.35-14.88,3.46-19.95-8.54,10.26-24.15,26.35-48.28,38.71-9.64,4.94-38.96,18.67-78.69,16.68-18.05-.91-65.17-3.27-93.28-38.56-5.12-6.43-18.91-24.26-19.28-50.03-.2-14.24,3.77-25.58,6.77-32.31-4.03,2.77-9.18,6.96-14.07,13.03-6.99,8.68-10.33,17.34-11.99,22.93.54-9.62,2.29-22.34,7.3-36.48,3.14-8.86,6.87-16.34,10.42-22.41Z"/>
  <path class="st4" d="M451.51,620.25c-6.25-22.2-11.96-49.82-14.07-81.82-1.45-22.02-.93-42.01.52-59.41,2.16-12.65,6.38-29.5,15.11-47.94,10.36-21.88,23.14-37.71,32.83-47.94.41,12.65,1.41,27.38,4.17,27.62,1.55.13,2.56-4.39,5.21-10.42,6.74-15.34,17.27-24.99,28.66-35.44,4.19-3.84,10.1-8.84,17.72-14.07,2.81,2.97,6.31,7.27,9.38,13.03,3.21,6.01,4.85,11.55,5.73,15.63,4.34-4.34,8.69-8.69,13.03-13.03-3.95-2.86-7.95-5.81-11.99-8.86-3.92-2.97-7.74-5.92-11.46-8.86,4.39-2.26,9.41-5.3,14.59-9.38,8.43-6.64,14.31-13.69,18.24-19.28-10.09,2.55-20.73,5.63-31.79,9.38-5.96,2.02-11.69,4.11-17.2,6.25,7.93-8.05,16.17-17.07,24.49-27.1,9.58-11.56,17.87-22.79,25.01-33.35-9.75,4.29-21.27,10.3-33.35,18.76-14.96,10.48-26.25,21.52-34.39,30.75,6.54-12.46,17.7-30.2,35.96-47.42,20.37-19.22,41.07-29.77,54.72-35.44,3.3,8.03,6.73,18.39,8.86,30.75,2.56,14.87,2.41,27.79,1.56,37.52,1.91,5.91,3.82,11.81,5.73,17.72,3.04-11.26,6.53-29.62,4.17-52.11-2.26-21.55-8.98-38.2-14.07-48.46-11.22,2.2-24.8,5.83-39.61,11.99-17.17,7.14-30.9,15.57-41.17,22.93-12.49,10.04-25.64,21.46-39.08,34.39-12.6,12.13-23.86,24.05-33.87,35.44,3.82-7.82,7.64-15.63,11.46-23.45-4.98,1.86-11.75,5.02-18.76,10.42-5.86,4.52-10.1,9.23-13.03,13.03,2.26-5.56,4.52-11.12,6.77-16.68-1.35-1.25-4.14-3.5-8.34-4.69-3.82-1.09-7.08-.81-8.86-.52,1.85,6.23,3.48,12.31,2.8,12.56-.08.03-.16-.03-.2-.05-5.09-3.38-10.42-7.82-10.42-7.82-2.06-1.71-5.58-3.27-11.99-2.61,2.15,2.46,5.54,7,7.3,13.55,1.26,4.71,1.96,11.53.52,11.99-2.11.66-3.94-13.85-16.15-22.41-.96-.68-1.77-1.16-17.72-8.34,3.84,5.06,7.95,11.46,11.46,19.28,1.47,3.27,2.67,6.41,3.65,9.38-9.65-12.52-23.56-28.97-42.21-46.38-9.71-9.06-22.02-20.46-39.08-31.79-15.34-10.19-39.87-23.87-74-32.83-4.18,9.82-8.51,22.26-11.46,37-2.47,12.32-3.43,23.44-3.65,32.83-.24,9.4.52,22.81,5.21,38.04,6.59,21.4,17.8,36.18,25.01,44.3,2.43-1.39,4.86-2.78,7.3-4.17-6.19-8.24-14.15-20.78-19.8-37.52-7.05-20.89-7.43-39.17-6.77-50.55.55-6.64,1.73-14.63,4.17-23.45,2.13-7.7,4.75-14.33,7.3-19.8,15.6,7.18,38.39,20,60.45,42.21,16.75,16.86,27.79,33.82,34.92,46.9-8.17-10.53-20.65-24.14-38.56-36.48-11.91-8.21-23.29-13.83-32.83-17.72,7.19,11.2,15.95,23.4,26.58,35.96,7.98,9.42,15.9,17.73,23.45,25.01-3.23-1.79-8.03-4.28-14.07-6.77-5.17-2.13-9.08-3.38-16.68-5.73-6.87-2.13-14.92-4.59-23.97-7.3,10.31,7.45,17.6,14.59,22.41,19.8,7.81,8.47,10.63,13.58,18.24,18.76,8.01,5.45,16.19,7.48,21.89,8.34-17.94-.76-30.49,3.36-38.04,6.77-6.17,2.79-12.01,6.76-23.45,14.59-10.4,7.12-18.77,13.34-24.49,17.72,7.34-2.75,16.64-5.55,27.62-7.3,11.5-1.83,21.63-1.99,29.7-1.56-15.46,1.21-26,5.83-32.83,9.9-11.46,6.83-15.83,14.12-34.39,31.79-8.15,7.75-15.13,13.79-19.8,17.72,6.35-2.48,15.02-5.12,25.53-6.25,8.28-.9,15.55-.63,21.37,0-5.89,1.65-14.45,4.77-23.45,10.94-8.36,5.73-14.09,12.02-17.72,16.68-4.23,4.24-8.61,8.92-13.03,14.07-5.09,5.92-9.59,11.7-13.55,17.2,4.63-2.76,11.3-6.08,19.8-8.34,8.28-2.2,15.53-2.66,20.84-2.61-4.05,2.62-8.27,5.72-12.51,9.38-16.29,14.09-25.52,30.27-30.75,42.21,8.54-6.45,22.18-15.04,40.65-20.32,11.6-3.32,22.01-4.44,30.23-4.69-6.03,2.58-14.09,6.78-22.41,13.55-8.6,7-14.46,14.29-18.24,19.8,10.65-3.8,26.64-8.1,46.38-8.34,15.46-.19,28.47,2.18,38.04,4.69-5.58.78-13.4,2.53-21.89,6.77-5.66,2.83-10.16,6.04-13.55,8.86,8.52-2.83,28.35-8.13,52.63-2.61,21.19,4.82,35.46,15.54,42.21,21.37-1.34-2.98-3.18-6.38-5.73-9.9-5.26-7.25-11.28-11.85-15.63-14.59,5.06,1.71,19.21,7.26,28.14,21.89,3.66,6,5.39,11.79,6.25,16.15,1.53,3.4,4.6,9.01,10.42,14.07,4.02,3.49,8.01,5.55,10.94,6.77,1.28,2.14,3.7,5.52,7.82,8.34,6.44,4.41,13.02,4.71,15.63,4.69,1.95.6,9.65,2.72,18.24-1.04,8.46-3.71,12.12-10.65,13.03-12.51Z"/>
  <path d="M278.14,421.8c10.73,6.31,19.87,9.08,26.26,10.45,5.97,1.28,9.59,1.33,17.79,3.11,8.83,1.91,15.83,4.26,20.33,5.93,5.21,2.43,11.06,5.57,17.22,9.6,5.96,3.91,11.03,7.88,15.25,11.58-.57-4.35-1.76-9.73-4.24-15.53-5.79-13.55-15.33-21.61-20.61-25.41,10.77,5.37,16.79,11.74,20.33,16.66,3.36,4.67,4.51,8.11,11.58,20.61,3.13,5.55,5.82,10.03,7.62,12.99,1.59-1.81,3.47-4.33,5.08-7.62,2.41-4.93,3.15-9.45,3.39-12.42.64,1.84,3.28,10.11-.85,18.92-2.79,5.96-7.28,9.17-9.32,10.45,2.64,10.35,5.27,20.71,7.91,31.06l-24.28-18.64c-4.02.81-9.44,1.49-15.81,1.13-7.05-.4-12.84-1.95-16.94-3.39-3.57-1.3-9.14-3.84-14.68-8.75-6.04-5.36-9.34-11.14-11.01-14.68-1.32-2.33-2.86-5.55-3.95-9.6-1.08-3.99-1.38-7.51-1.41-10.16-9.88-8.75-19.76-17.51-29.65-26.26Z"/>
  <path class="st3" d="M320.21,448.34c1.88,1.15,4.75,2.66,8.47,3.67,4.1,1.11,6.49.88,9.6,1.13,10.61.85,18.58,6.44,20.61,7.91,4.67,3.36,7.86,7.22,9.6,9.32,1.99,2.4,3.48,4.58,4.52,6.21,1.21,1.31,2.99,3.55,4.24,6.78,1.42,3.66,1.5,6.89,1.41,8.75-2.07-1.98-4.14-3.95-6.21-5.93-1.87.21-4.38.38-7.34.28-2.34-.08-7.69-.41-14.4-2.54-7.33-2.33-15.39-4.88-20.89-12.14-2.34-3.08-3.55-6.14-5.93-12.14-1.81-4.56-2.95-8.49-3.67-11.29Z"/>
  <path class="st4" d="M642.02,525.3c-6.32,6.88-11.94,11.86-15.79,15.06-11.13,9.24-14.31,9.27-21.67,17.26-5.49,5.96-12.12,15.06-12.12,15.06,4.24,1.3,10.21,3.23,17.26,5.88,15.08,5.66,22.62,8.49,29.74,13.95,10.65,8.17,15.37,17.46,16.89,16.52,1.49-.92-2.67-10.07-2.94-10.65-1.87-4.08-4.23-7.85-10.65-15.79-2.74-3.39-6.43-7.8-11.02-12.85,8.36,4.45,22.14,13.15,34.52,28.64,11.77,14.72,17.22,29.25,19.83,38.19,6.08,6.17,13.17,14.64,19.46,25.71,11.44,20.13,14.75,39.22,15.79,51.04,3.98-9.25,9.8-26.06,9.55-47.74-.25-21.17-6.19-37.51-10.28-46.64,5.11,5.49,11.55,13.62,16.89,24.6,7.22,14.84,9.3,28.42,9.91,37.09,1.69-10.48,3.39-29.84-3.3-52.51-5.75-19.46-15.28-33.26-21.67-41.13-7.59-10.02-18.58-22.49-33.78-34.52-17.32-13.7-34.07-22.06-46.64-27.17Z"/>
  <path class="st1" d="M223.4,573.4c1.96-.92,5.29-2.17,9.55-2.2,2.34-.02,8.57.49,9.91.37-1.88,2.39-4.12,5.57-6.24,9.55-2.48,4.64-3.78,8.42-4.41,10.28-3.33,9.84-3.97,19.41-4.04,25.34,2.34-4.17,5.45-8.97,9.55-13.95,4.59-5.58,9.21-9.93,13.22-13.22-2.46,7.41-4.87,16.7-6.24,27.54-1.44,11.35-1.35,21.34-.73,29.38,6.76-11.02,11.16-20.49,13.95-27.17,4.97-11.91,6.69-19.43,13.95-26.81,5.34-5.42,11.27-8.32,15.42-9.91,5.44-1.25,12.61-2.21,20.93-1.47,20.64,1.84,34.76,12.97,40.39,17.99,3.4,2.75,8.32,7.02,13.59,12.85,8.29,9.17,8.24,12,13.95,18.36,12.26,13.63,28.13,18,32.31,19.1,5.25,1.37,13.52,2.85,23.87,1.84,2.23,3.35,5.44,9.09,6.98,16.89,1.86,9.43.37,17.19-.73,21.3,2.26-2.9,4.73-6.56,6.98-11.02,3.23-6.39,4.93-12.3,5.88-16.89,1.64,7.64,4.04,24-2.2,42.96-4.5,13.67-11.7,23.21-16.52,28.64-.32-4.52-1.27-10.74-4.04-17.63-1.8-4.49-3.93-8.16-5.88-11.02-3.84,10.34-12.19,28.51-29.74,45.17-12.95,12.29-26.16,19.25-35.25,23.13-6.97-5.53-16.44-14.33-24.97-27.17-7.87-11.85-12.22-23.05-14.69-31.21-1.21,5.02-2.48,13.28-.73,23.13,1.08,6.09,3.01,11.05,4.77,14.69-3.84-2.47-8.55-6.02-13.22-11.02-6.39-6.84-10.22-13.74-12.49-18.73-.21,5.19-.23,22.17,11.75,37.46,6.88,8.78,14.94,13.46,19.83,15.79-8.28-1.65-31.31-7.42-48.47-28.28-7.54-9.17-11.65-18.45-13.95-25.34-.45,6.84-.39,19.67,5.51,34.15,6.48,15.92,16.68,25.65,22.03,30.11-6.55-.24-21.91-1.72-36.72-12.49-8.78-6.38-14.18-13.7-17.26-18.73-5.73-9.32-13.44-24.42-17.26-44.43-3.07-16.07-2.59-29.89-1.47-39.66-2.8,5.21-5.7,11.59-8.08,19.1-3.8,11.99-4.94,22.72-5.14,30.85-4.97-14.18-13.38-45.18-1.47-78.58,2.7-7.57,6.05-14.17,9.55-19.83-10.16,6.85-20.32,13.71-30.48,20.56,8.31-9.63,13.02-18.15,15.79-24.24,1.97-4.31,2.89-7.23,6.61-15.06,2.8-5.87,5.26-10.5,8.08-15.79,2.18-4.1,4.89-9.07,8.08-14.69Z"/>
  <path class="st2" d="M336.94,455.19c-.73,1.99-2.32,7.17-.8,13.53,1.68,7.04,6.13,11.15,7.7,12.47,1.1.53,6.92,3.2,13.8.8,6.58-2.3,9.48-7.6,10.08-8.76-3.54-2.65-7.08-5.31-10.62-7.96-.44.7-1.1,1.98-1.33,3.72-.27,2.07.23,3.71.53,4.51-.1.21-1.11,2.22-3.45,2.65-2.19.41-3.77-.89-3.98-1.06-.38-.11-2.9-.9-3.98-3.45-.14-.33-1.07-2.62,0-4.51.75-1.32,1.77-1.21,2.65-2.39.66-.88,1.21-2.41.53-5.31-3.72-1.42-7.43-2.83-11.15-4.25Z"/>
  <path class="st0" d="M330.56,452.38c2.12.94,4.25,1.87,6.38,2.8,1.17.51,2.34,1.02,3.5,1.53.8.23,1.61.48,2.45.75,1.86.61,3.59,1.28,5.2,1.97.18.64.39,1.67.26,2.93-.09.93-.34,1.68-.56,2.21-.55.28-2.36,1.27-3.11,3.34-1.01,2.8.5,5.91,2.73,7.44,1.8,1.23,4.46,1.71,6.59.56,1.13-.61,1.78-1.5,2.07-1.98,1.54-2.5.53-5.26.38-5.65.11-.99.22-1.98.33-2.96,3.18,1.9,6.84,4.43,10.59,7.76,5.01,4.46,8.64,8.98,11.2,12.71-1.19-2.7-2.82-5.87-5.08-9.22-2.21-3.27-4.47-5.92-6.49-8-1.55-2.01-3.82-4.53-6.96-6.96-3.06-2.36-5.99-3.9-8.28-4.89-2.15-1.07-4.83-2.18-8-3.01-5.24-1.38-9.85-1.51-13.18-1.32Z"/>
  <path class="st1" d="M478.5,425.22c-5.17,10.95-10.65,24.93-14.67,41.63-4.52,18.76-5.87,35.42-5.99,48.52-.43,12.08.18,27.62,3.89,45.22,4.95,23.46,13.56,41.78,20.66,54.21-1.15-4.71-2.83-11.64-4.79-20.07-3.49-14.96-5.25-22.58-6.29-29.35-1.04-6.76-2.15-16.57-2.1-28.75,2.38,8.64,5.79,18.52,10.78,29.05,8.32,17.56,18.25,31.05,26.65,40.73-2.56-8.45-6.11-24.41-2.4-43.72,2.28-11.89,6.58-21.21,10.18-27.55.45,9.3,2.02,21.6,6.59,35.34,3.28,9.87,7.32,18.08,11.08,24.56.32-4.12,1.36-10.88,5.09-18.27,4.2-8.31,9.82-13.5,13.18-16.17-1.15,3.62-3,11.14-1.2,20.36,2.18,11.17,8.43,18.26,11.08,20.96,2.7-13.44,8.44-30.87,20.96-47.02,7.81-10.08,16.61-17.35,17.37-17.97,8.74-7.16,13-8.31,20.66-14.38,5.56-4.39,12.93-11.39,19.94-22.43-10.14,3.88-20.28,7.77-30.42,11.65,8-5.81,19.76-16.01,29.05-32.04,17.2-29.69,14.26-59.24,12.76-69.48-3.7,7.14-9.72,16.65-19.35,25.76-5.12,4.84-10.18,8.55-14.67,11.38,3.22-8.36,8.75-26.03,5.99-48.52-2.76-22.46-12.38-38.25-17.53-45.58-6.99,14.31-14.77,24.29-20.8,30.91-7.75,8.51-12.62,11.46-21.56,20.66-10.46,10.77-17.63,20.96-22.19,28.17,2.11-6.18,4.87-16.93,3.62-30.27-.91-9.75-3.66-17.54-5.99-22.76-7.88,8.37-16.63,19.07-24.86,32.34-13.24,21.36-20.28,41.59-24.2,56.78-.25-6.5-1.1-14.55-3.35-23.54-2.02-8.06-4.66-14.89-7.19-20.36Z"/>
  <path class="st1" d="M675.12,655.42c5.66,14.03,16.12,45.73,8.26,84.3-3.91,19.18-11.15,34.23-17.36,44.63,2.28-5.3,5.22-13.87,5.79-24.79.58-11.12-1.54-20.08-3.31-25.62-.99,11.65-4.33,32.77-17.36,55.37-12.36,21.43-27.86,34.54-37.19,41.32,5.9-.57,16.9-2.47,28.1-9.92,7.08-4.71,11.87-10.06,14.88-14.05-5.99,10.26-16.11,24.89-32.23,38.84-15.42,13.35-30.6,21.13-41.32,25.62,16.38-3.61,55.04-14.58,85.13-49.59,11.79-13.72,19.22-27.58,23.97-38.84,3.25-9.74,6.47-22,8.26-36.36,1.88-15.05,1.69-28.28.83-38.84-1.02-6.58-3.07-15.28-7.44-24.79-5.88-12.8-13.5-21.77-19.01-27.27Z"/>
  <path class="st3" d="M260.35,482.22c4.42-1.3,11.04-2.88,19.2-3.39,10.17-.63,16.8.76,16.94,0,.19-1.05-12.2-5.3-25.98-6.78-14.66-1.57-26.78.43-34.45,2.26-5.35.84-13.46,2.81-22.02,7.91-13.41,7.98-20.24,19.06-23.09,24.42,6.75-3.17,15.26-6.4,25.35-8.61,5.5-1.21,10.65-1.93,15.3-2.33-6.34,3.32-15.24,8.95-23.77,18.14-11.68,12.58-17.02,25.73-19.48,33.45,7.49-5.64,18.72-12.82,33.6-18.2,13.77-4.98,26.05-6.74,35.01-7.34-5.75,2.53-13.84,6.85-22.02,14.12-8,7.1-13.18,14.43-16.37,19.76,10.96-3.29,25.77-6.58,43.47-7.34,17.22-.74,31.89,1.15,42.92,3.39-4.55.05-12.27.72-20.89,4.52-7.98,3.52-13.41,8.26-16.51,11.42,8.35-2.87,25.32-7.45,46.44-4.08,25.15,4.01,41.74,16.99,48.41,22.84-1.46-3.02-3.34-6.39-5.73-9.9-3.34-4.9-6.83-8.8-9.92-11.81,3.67,1.56,9.21,4.44,14.68,9.6,5.72,5.39,8.97,11.02,10.73,14.68.23,3.08,1.07,8.69,4.52,14.68,1.52,2.63,3.03,3.86,9.17,10.36,3.58,3.79,6.43,6.88,8.19,8.8,2.74,2.58,7.27,6.27,13.7,9.07,5.04,2.2,15.33,6.69,26.95,2.95,9.59-3.09,15.06-10.17,17.23-13.38-1.65-6.32-3.3-12.64-4.96-18.96-3.14,1.41-10.11,4.03-19.09,3.1-7.36-.76-12.77-3.57-15.62-5.33-1.46-.98-4.71-3.46-6.56-7.93-2.9-6.98-.16-13.34.37-14.5-3.06-9.47-8.68-23.16-19.22-37.42-10.26-13.88-21.36-23.12-29.36-28.8-9.71-5.44-21.2-10.98-34.45-15.81-23.95-8.73-45.71-12.23-62.68-13.55Z"/>
  <path class="st3" d="M271.45,700.57c-.66-6.71-.82-17.08,2.64-28.99,2.18-7.52,5.2-13.58,7.91-18.07-1.13,10.83-2.11,34.78,10.16,60.99,9.27,19.79,22.16,32.45,30.12,39.15-1.94-4.84-4.11-11.77-4.89-20.33-.7-7.61-.07-14.11.76-18.91,2.53,8.54,7.22,20.77,16.19,33.59,8.08,11.55,16.83,19.58,23.47,24.79,9.96-3.86,29.43-13.01,45.8-33.08,10.74-13.16,16.28-26.28,19.2-35.23,1.94,2.86,4.07,6.53,5.88,11.02,2.76,6.89,3.72,13.11,4.04,17.63,5.39-3.93,15.87-12.74,22.32-27.8,3.79-8.83,4.92-16.87,5.23-22.48.47-6.61.52-14.58-.52-23.53-.83-7.12-2.18-13.44-3.66-18.82-4.53,2.7-25.7,14.68-50.98,7.73-12.32-3.39-20.86-9.96-25.6-14.31-3.98-7.05-9.98-15.96-18.82-24.85-6.49-6.52-12.93-11.43-18.45-15.06-3.7-3.27-10.47-8.43-20.33-11.67-10.07-3.31-18.77-3.11-23.72-2.64-3.35.07-8.9.63-15.06,3.39-7.18,3.22-11.68,7.86-13.93,10.54-3.67,5.03-8.4,12.72-11.67,22.96-2.69,8.4-3.55,15.88-3.76,21.46.44,8.99,1.85,20.54,5.65,33.51,3.47,11.83,7.96,21.56,12.05,28.99Z"/>
  <path d="M441.52,572.67c-2.21-1.16-5.73-2.66-10.28-3.3-4.67-.66-8.55-.15-11.02.37-4.26.9-8.14,1.31-12.12,4.04-2.7,1.86-4.46,4-5.51,5.51-.6,1.74-1.38,4.81-.73,8.45.97,5.48,4.56,8.79,6.98,11.02,5.47,5.04,11.65,6.72,15.06,7.34.77,1.92.6,3.25.37,4.04-1.17,3.88-7.51,6.43-15.79,5.51-1.72-.19-8.54-.46-14.32-4.77-8.56-6.39-11.99-19.23-8.66-32.31-5.18,12.23-4.39,25.32,2.79,33.41,5.76,6.48,14.11,8,18.36,8.81,10.38,1.97,18.86-.68,22.77-2.2,1.66,1.18,6.51,4.29,13.22,4.04,4.01-.15,7.11-1.44,8.89-2.36-.39-2.4-.78-4.79-1.18-7.19-.46.74-1.59,2.33-3.67,3.3-3.48,1.63-6.8.24-7.34,0-1.04-.46-2.73-.97-4.04-2.57-2.4-2.92-1.61-6.73-1.47-7.34,1.57.2,4.81.39,8.45-1.1,2.71-1.11,4.54-2.7,5.57-3.75-2.1-9.64-4.2-19.29-6.3-28.93Z"/>
  <path class="st3" d="M411.51,582.59c2.22-1.71,5.93-4.1,11.05-5.35,9.48-2.31,17.31.91,19.96,2.14.59,2.14,1.19,4.28,1.78,6.41-2.63-1.25-8.94-3.82-17.11-2.85-6.48.77-11.16,3.41-13.54,4.99-.71-1.78-1.43-3.56-2.14-5.35Z"/>
</svg>